<svg width="1200" height="630" viewBox="0 0 1200 630" fill="none" xmlns="http://www.w3.org/2000/svg">
<g clip-path="url(#clip0_43_6801)">
<rect width="1200" height="630" fill="#DBE7FF"/>
<path fill-rule="evenodd" clip-rule="evenodd" d="M924.787 -84.6689C1053.39 -107.173 1200.59 -57.6957 1277.51 49.8838C1349.56 150.655 1299.32 286.983 1278.39 409.891C1262.38 503.861 1228.83 586.751 1173.04 663.267C1103.46 758.688 1038.86 870.481 924.787 894.838C792.021 923.187 643.511 892.702 545.189 797.33C445.165 700.305 396.894 547.813 424.845 409.891C449.659 287.452 587.346 242.277 675.31 155.26C760.604 70.8849 807.715 -64.1828 924.787 -84.6689Z" fill="#6B89FB"/>
<rect x="-73" y="68" width="615.003" height="657.662" rx="28.4394" fill="#F0F0F0"/>
<path fill-rule="evenodd" clip-rule="evenodd" d="M494.011 455.942C494.011 452.016 490.828 448.832 486.901 448.832H-26.7859C-30.7126 448.832 -33.8958 452.016 -33.8958 455.942V523.486C-33.8958 527.413 -30.7126 530.596 -26.7859 530.596H122.521C126.448 530.596 129.631 527.413 129.631 523.486V496.824C129.631 492.897 132.814 489.714 136.741 489.714H486.901C490.828 489.714 494.011 486.531 494.011 482.604V455.942Z" fill="#BFFFD9"/>
<rect x="-33.8958" y="192.877" width="499.468" height="81.7634" rx="7.10986" fill="#FFF9BE"/>
<path fill-rule="evenodd" clip-rule="evenodd" d="M-33.8958 327.965C-33.8958 324.038 -30.7126 320.855 -26.7859 320.855H438.021C441.948 320.855 445.131 324.038 445.131 327.965V354.627C445.131 358.553 441.948 361.737 438.021 361.737H289.603C285.676 361.737 282.493 364.92 282.493 368.846V395.508C282.493 399.435 279.31 402.618 275.383 402.618H132.297C128.37 402.618 125.187 399.435 125.187 395.508V368.846C125.187 364.92 122.004 361.737 118.077 361.737H-26.7859C-30.7126 361.737 -33.8958 358.553 -33.8958 354.627V327.965Z" fill="#C1D6FF"/>
<rect x="-19.6761" y="171.548" width="499.468" height="17.7746" rx="8.88732" fill="#BBBBBB"/>
<rect x="-20" y="136" width="334" height="18" rx="9" fill="#BBBBBB"/>
<rect x="-19.6761" y="463.052" width="499.468" height="17.7746" rx="8.88732" fill="#BBBBBB"/>
<rect x="-19.6761" y="335.075" width="436.368" height="17.7746" rx="8.88732" fill="#BBBBBB"/>
<rect x="-19.6761" y="242.646" width="464.807" height="17.7746" rx="8.88732" fill="#BBBBBB"/>
<rect x="-19.6761" y="534.151" width="464.807" height="17.7746" rx="8.88732" fill="#BBBBBB"/>
<rect x="-19.6761" y="406.173" width="274.618" height="17.7746" rx="8.88732" fill="#BBBBBB"/>
<rect x="-19.6761" y="207.097" width="423.925" height="17.7746" rx="8.88732" fill="#BBBBBB"/>
<rect x="-19.6761" y="498.601" width="140.42" height="17.7746" rx="8.88732" fill="#BBBBBB"/>
<rect x="138.518" y="498.601" width="198.187" height="17.7746" rx="8.88732" fill="#BBBBBB"/>
<rect x="292.269" y="370.624" width="144.863" height="17.7746" rx="8.88732" fill="#BBBBBB"/>
<rect x="134.075" y="370.624" width="140.42" height="17.7746" rx="8.88732" fill="#BBBBBB"/>
<rect x="-19.6761" y="370.624" width="135.976" height="17.7746" rx="8.88732" fill="#BBBBBB"/>
<rect x="-19.6761" y="278.196" width="382.155" height="17.7746" rx="8.88732" fill="#BBBBBB"/>
<rect x="-19.6761" y="569.7" width="382.155" height="17.7746" rx="8.88732" fill="#BBBBBB"/>
<g clip-path="url(#clip1_43_6801)">
<rect x="787" y="124" width="471.028" height="566.123" rx="28.4394" fill="white"/>
<rect x="817.217" y="223.538" width="385.71" height="115.535" rx="7.10986" fill="#FFF9BE"/>
<rect x="817.217" y="342.628" width="423.925" height="117.313" rx="7.10986" fill="#C1D6FF"/>
<rect x="817.217" y="466.162" width="332.386" height="71.0986" rx="7.10986" fill="#BFFFD9"/>
<rect x="869.652" y="273.307" width="302.169" height="14.2197" rx="7.10986" fill="#8C8C8C"/>
<rect x="869.652" y="394.175" width="345.717" height="14.2197" rx="7.10986" fill="#8C8C8C"/>
<rect x="870" y="590" width="291" height="14" rx="7" fill="#8C8C8C"/>
<rect x="869.652" y="476.827" width="261.287" height="14.2197" rx="7.10986" fill="#8C8C8C"/>
<rect x="831.437" y="239.535" width="258.621" height="14.2197" rx="7.10986" fill="#8C8C8C"/>
<rect x="831.437" y="358.625" width="214.185" height="14.2197" rx="7.10986" fill="#8C8C8C"/>
<rect x="831" y="554" width="175" height="14" rx="7" fill="#8C8C8C"/>
<rect x="869.652" y="308.856" width="232.848" height="14.2197" rx="7.10986" fill="#8C8C8C"/>
<rect x="869.652" y="429.724" width="200.854" height="14.2197" rx="7.10986" fill="#8C8C8C"/>
<rect x="869.652" y="512.376" width="109.314" height="14.2197" rx="7.10986" fill="#8C8C8C"/>
<circle cx="850.989" cy="280.417" r="4.44366" fill="#8C8C8C"/>
<circle cx="850.989" cy="401.284" r="4.44366" fill="#8C8C8C"/>
<circle cx="850.989" cy="596.659" r="4.44366" fill="#8C8C8C"/>
<circle cx="850.989" cy="483.937" r="4.44366" fill="#8C8C8C"/>
<circle cx="850.989" cy="315.966" r="4.44366" fill="#8C8C8C"/>
<path d="M864.056 175.996C864.061 174.511 863.775 173.039 863.214 171.664C862.69 170.353 861.914 169.158 860.93 168.145C859.935 167.133 858.746 166.332 857.434 165.79C851.6 163.334 844.876 166.029 842.354 171.835C841.755 173.213 841.451 174.701 841.462 176.203C841.449 177.69 841.727 179.164 842.283 180.543C842.811 181.85 843.586 183.042 844.566 184.054C845.563 185.064 846.752 185.862 848.063 186.403C849.549 186.861 851.073 187.183 852.616 187.366C852.616 187.602 852.616 187.78 852.616 187.787C852.402 189.786 851.857 191.735 851.004 193.554C851.004 193.554 850.961 193.626 850.946 193.662C850.699 194.155 850.42 194.632 850.111 195.089C850.012 195.239 849.919 195.396 849.812 195.532L849.726 195.646C848.966 196.643 848.059 197.519 847.036 198.244C846.921 198.315 846.822 198.401 846.707 198.465C846.084 199.126 845.941 199.669 846.279 200.092C846.607 200.506 847.078 200.542 847.706 200.192C849.711 199.13 851.621 197.897 853.416 196.509C855.379 195.015 857.156 193.293 858.711 191.378L858.832 191.221C860.396 189.278 861.661 187.113 862.586 184.797C863.602 182.201 864.108 179.433 864.078 176.646C864.078 176.539 864.078 176.439 864.078 176.332C864.078 176.225 864.056 176.118 864.056 175.996Z" fill="#36DB93"/>
<path d="M897.585 195.162C899.14 195.162 900.716 194.863 902.313 194.266C903.91 193.655 905.243 192.739 906.312 191.517C907.382 190.281 907.916 188.774 907.916 186.997C907.916 185.552 907.548 184.317 906.812 183.289C906.09 182.261 905.222 181.428 904.209 180.789C903.195 180.151 901.869 179.442 900.23 178.665C899.008 178.095 898.057 177.616 897.376 177.228C896.696 176.825 896.127 176.36 895.668 175.832C895.21 175.29 894.981 174.679 894.981 173.999C894.981 173.041 895.252 172.305 895.793 171.791C896.349 171.263 897.078 170.999 897.981 170.999C898.772 170.999 899.55 171.208 900.313 171.624C901.091 172.027 901.647 172.499 901.98 173.041L902.646 176.499L905.479 176.957C905.535 176.29 905.639 175.04 905.792 173.207C905.944 171.374 906.021 170.388 906.021 170.25C905.368 169.666 904.389 169.187 903.084 168.812C901.792 168.437 900.563 168.25 899.397 168.25C897.744 168.25 896.175 168.555 894.689 169.166C893.217 169.764 892.016 170.666 891.086 171.874C890.169 173.069 889.711 174.513 889.711 176.207C889.711 177.665 890.058 178.908 890.753 179.935C891.461 180.949 892.294 181.761 893.252 182.372C894.224 182.983 895.495 183.664 897.064 184.414C898.175 184.941 899.043 185.393 899.668 185.768C900.306 186.129 900.834 186.559 901.251 187.059C901.681 187.545 901.896 188.108 901.896 188.746C901.896 189.413 901.716 189.989 901.355 190.475C901.008 190.961 900.543 191.336 899.959 191.6C899.376 191.85 898.758 191.975 898.105 191.975C897.189 191.975 896.314 191.781 895.481 191.392C894.648 190.989 894.023 190.482 893.606 189.871L892.773 185.976L889.857 185.539L889.378 192.079C890.017 192.968 891.072 193.704 892.544 194.287C894.03 194.87 895.71 195.162 897.585 195.162ZM912.484 189.1C912.484 191.281 912.886 192.85 913.692 193.808C914.511 194.752 915.809 195.224 917.587 195.224C918.739 195.224 919.823 194.94 920.836 194.37C921.864 193.801 922.711 192.982 923.377 191.912L923.648 191.954V192.204C923.648 193.19 923.968 193.947 924.606 194.475C925.245 195.002 926.12 195.266 927.231 195.266C927.939 195.266 928.62 195.197 929.272 195.058C929.939 194.933 930.64 194.731 931.376 194.454L931.709 191.829L930.959 191.621C930.279 191.426 929.765 191.232 929.418 191.038C929.071 190.829 928.814 190.538 928.647 190.163C928.481 189.774 928.397 189.232 928.397 188.538V176.582L927.627 175.769L920.836 176.499L920.378 179.623L923.252 180.852V189.08C922.78 189.524 922.308 189.857 921.836 190.079C921.364 190.288 920.795 190.392 920.128 190.392C919.309 190.392 918.691 190.093 918.274 189.496C917.871 188.899 917.67 187.892 917.67 186.476V176.665L916.837 175.853L910.255 176.29L909.755 179.04L912.484 180.706V189.1ZM944.171 192.121L941.38 191.079V181.914C941.852 181.442 942.38 181.088 942.963 180.852C943.546 180.602 944.157 180.477 944.796 180.477C945.643 180.477 946.31 180.789 946.796 181.414C947.295 182.025 947.545 182.921 947.545 184.101V191.079L946.191 192.246L946.087 194.662H955.044L955.398 192.121L952.503 191.079V181.998C953.017 181.512 953.537 181.137 954.065 180.873C954.593 180.609 955.183 180.477 955.836 180.477C956.724 180.477 957.405 180.789 957.877 181.414C958.349 182.039 958.585 182.935 958.585 184.101V191.079L957.273 192.246L957.21 194.662H966.167L966.542 192.121L963.563 191.079V181.643C963.563 179.672 963.133 178.2 962.272 177.228C961.425 176.242 960.182 175.749 958.543 175.749C956.433 175.749 954.378 176.887 952.378 179.165L952.086 179.123C951.767 177.915 951.198 177.04 950.378 176.499C949.573 175.943 948.601 175.665 947.462 175.665C945.296 175.665 943.254 176.748 941.338 178.915L941.088 178.873L941.505 176.499L940.922 175.874L933.548 176.603L933.173 179.123L936.318 180.498V191.079L933.277 192.246L933.006 194.662H943.754L944.171 192.121ZM979.962 192.121L977.171 191.079V181.914C977.643 181.442 978.171 181.088 978.754 180.852C979.337 180.602 979.948 180.477 980.587 180.477C981.434 180.477 982.1 180.789 982.586 181.414C983.086 182.025 983.336 182.921 983.336 184.101V191.079L981.982 192.246L981.878 194.662H990.835L991.189 192.121L988.294 191.079V181.998C988.808 181.512 989.328 181.137 989.856 180.873C990.384 180.609 990.974 180.477 991.627 180.477C992.515 180.477 993.196 180.789 993.668 181.414C994.14 182.039 994.376 182.935 994.376 184.101V191.079L993.064 192.246L993.001 194.662H1001.96L1002.33 192.121L999.354 191.079V181.643C999.354 179.672 998.924 178.2 998.063 177.228C997.216 176.242 995.973 175.749 994.334 175.749C992.224 175.749 990.168 176.887 988.169 179.165L987.877 179.123C987.558 177.915 986.988 177.04 986.169 176.499C985.364 175.943 984.392 175.665 983.253 175.665C981.087 175.665 979.045 176.748 977.129 178.915L976.879 178.873L977.296 176.499L976.712 175.874L969.339 176.603L968.964 179.123L972.109 180.498V191.079L969.068 192.246L968.797 194.662H979.545L979.962 192.121ZM1008.92 195.162C1009.81 195.162 1010.64 194.995 1011.4 194.662C1012.18 194.343 1012.83 193.94 1013.36 193.454C1013.9 192.968 1014.27 192.482 1014.48 191.996L1014.73 192.058L1014.79 192.35C1014.99 193.211 1015.32 193.884 1015.79 194.37C1016.28 194.856 1017.06 195.099 1018.13 195.099C1018.91 195.099 1019.53 195.037 1020 194.912C1020.49 194.787 1020.97 194.579 1021.44 194.287L1021.84 191.621L1021.02 191.475C1020.36 191.35 1019.88 191.183 1019.61 190.975C1019.34 190.753 1019.18 190.468 1019.13 190.121C1019.07 189.774 1019.04 189.191 1019.04 188.371V181.81C1019.04 179.588 1018.58 177.97 1017.65 176.957C1016.72 175.929 1015.38 175.415 1013.63 175.415C1012.45 175.415 1011.19 175.665 1009.86 176.165C1008.52 176.651 1007.41 177.276 1006.5 178.04C1005.62 178.804 1005.17 179.56 1005.17 180.31C1005.17 181.296 1005.53 181.949 1006.23 182.268C1006.94 182.588 1007.87 182.747 1009 182.747C1009.1 181.525 1009.21 180.616 1009.32 180.019C1009.43 179.422 1009.61 178.984 1009.86 178.706C1010.12 178.415 1010.5 178.269 1011 178.269C1012.02 178.269 1012.8 178.693 1013.34 179.54C1013.88 180.387 1014.15 181.442 1014.15 182.706V184.268C1012.07 184.337 1010.31 184.685 1008.88 185.309C1007.45 185.934 1006.37 186.74 1005.65 187.726C1004.94 188.712 1004.59 189.788 1004.59 190.954C1004.59 192.301 1004.98 193.343 1005.78 194.079C1006.58 194.801 1007.63 195.162 1008.92 195.162ZM1014.15 190.267C1013.79 190.6 1013.36 190.892 1012.88 191.142C1012.41 191.378 1011.94 191.496 1011.48 191.496C1010.87 191.496 1010.39 191.295 1010.02 190.892C1009.68 190.489 1009.5 190.031 1009.5 189.517C1009.5 188.712 1009.86 188.003 1010.57 187.392C1011.29 186.781 1012.48 186.337 1014.15 186.059V190.267ZM1037.28 191.787L1032.36 190.788V184.622C1032.6 183.567 1032.99 182.706 1033.55 182.039C1034.12 181.373 1034.78 181.039 1035.55 181.039C1036.34 181.039 1037.21 181.345 1038.17 181.956C1038.77 181.456 1039.23 180.921 1039.57 180.352C1039.9 179.769 1040.07 179.109 1040.07 178.373C1040.07 177.568 1039.8 176.894 1039.25 176.353C1038.73 175.811 1038.01 175.54 1037.11 175.54C1036.07 175.54 1035.1 175.95 1034.19 176.769C1033.3 177.575 1032.6 178.804 1032.09 180.456L1031.69 180.352L1032.09 176.499L1031.44 175.832L1024.65 176.519L1024.24 179.061L1027.4 180.373V191.079L1024.28 192.204L1023.94 194.641H1037.03L1037.28 191.787ZM1044.82 202.598C1046.11 202.598 1047.22 202.369 1048.15 201.911C1049.08 201.452 1049.93 200.703 1050.7 199.661C1051.47 198.62 1052.25 197.189 1053.03 195.37L1059.84 179.436L1061.9 178.373L1062.15 175.957H1054.22L1053.78 178.373L1056.36 179.498L1052.51 188.996L1048.9 179.352L1051.15 178.373L1051.47 175.957H1041.32L1040.95 178.415L1043.57 179.436L1049.78 194.849L1049.45 195.599C1049.06 196.446 1048.58 197.023 1048.03 197.328C1047.49 197.634 1046.88 197.786 1046.2 197.786C1045.47 197.786 1044.77 197.661 1044.09 197.412C1043.41 197.175 1042.81 196.821 1042.28 196.349C1041.71 196.891 1041.32 197.418 1041.11 197.932C1040.92 198.46 1040.82 199.036 1040.82 199.661C1040.82 200.175 1041.01 200.654 1041.38 201.098C1041.76 201.557 1042.25 201.918 1042.86 202.181C1043.47 202.459 1044.13 202.598 1044.82 202.598Z" fill="black"/>
</g>
<rect x="671.242" y="363" width="166.788" height="16" transform="rotate(11.6894 671.242 363)" fill="#C1D6FF"/>
<rect x="454.59" y="219" width="179.369" height="16" transform="rotate(28.6541 454.59 219)" fill="#FFF9BE"/>
<rect x="659" y="328.288" width="179.369" height="16" transform="rotate(-17.9529 659 328.288)" fill="#FFF9BE"/>
<rect x="434" y="334" width="166.788" height="16" fill="#C1D6FF"/>
<rect x="480" y="464.55" width="136.518" height="16" transform="rotate(-20.5513 480 464.55)" fill="#BFFFD9"/>
<rect x="674.802" y="403" width="180.464" height="16" transform="rotate(33.374 674.802 403)" fill="#BFFFD9"/>
<circle cx="644.5" cy="363.5" r="73.5" fill="#36DB93"/>
</g>
<defs>
<clipPath id="clip0_43_6801">
<rect width="1200" height="630" fill="white"/>
</clipPath>
<clipPath id="clip1_43_6801">
<rect x="787" y="124" width="471.028" height="566.123" rx="28.4394" fill="white"/>
</clipPath>
</defs>
</svg>
